<svg width="88" height="88" viewBox="0 0 88 88" fill="none" xmlns="http://www.w3.org/2000/svg">
<path d="M7.3335 8.80005V71.5734H65.2668C71.259 56.114 74.5379 47.4177 81.4002 32.2667H75.5335V24.2H70.4002V16.1334H33.7335C27.8668 16.1334 27.8668 8.80005 23.4668 8.80005H7.3335Z" fill="white"/>
<path d="M8.5067 70.1903V9.95229H22.8419C24.1678 9.95229 25.4064 10.6096 26.1391 11.7001L28.2762 14.8933C29.5002 16.7146 31.563 17.8095 33.7715 17.8095H69.2267V20.4285C69.2267 21.1517 69.8176 21.738 70.5467 21.738C71.2757 21.738 71.8667 21.1517 71.8667 20.4285V16.4999C71.8667 15.7767 71.2757 15.1903 70.5467 15.1903H33.7715C32.4455 15.1903 31.2071 14.5331 30.4742 13.4426L28.3372 10.2494C27.1132 8.42802 25.0503 7.33325 22.8419 7.33325H7.1867C6.45768 7.33325 5.8667 7.91955 5.8667 8.64278V71.4999C5.8667 72.2231 6.45768 72.8095 7.1867 72.8095H49.7978C50.5267 72.8095 51.1178 72.2231 51.1178 71.4999C51.1178 70.7767 50.5267 70.1903 49.7978 70.1903H8.5067Z" fill="#21262A"/>
<path d="M79.0982 33.5238C77.637 36.9464 75.7951 42.0141 74.6102 45.6244C74.3845 46.3121 74.7635 47.0512 75.4568 47.275C76.1499 47.4989 76.8948 47.1229 77.1206 46.4353C78.49 42.2625 80.5683 36.6723 82.3146 32.7425C82.6992 31.877 82.0603 30.9048 81.1067 30.9048H20.3867C19.8616 30.9048 19.3864 31.2137 19.1767 31.6912C17.2084 36.1723 15.434 40.688 13.8569 45.2944C10.8691 54.0266 8.68937 62.6929 7.20572 71.2787C7.08253 71.9915 7.56517 72.6686 8.2837 72.7907C9.00224 72.9129 9.68457 72.4342 9.80776 71.7212C11.2685 63.2677 13.4147 54.7347 16.3567 46.1364C17.8172 41.8708 19.4505 37.6818 21.2536 33.5238H79.0982Z" fill="#21262A"/>
<path fill-rule="evenodd" clip-rule="evenodd" d="M75.8268 24.3572V32.2143H20.3868C18.552 36.3916 16.7568 40.8965 15.1068 45.7155C14.1168 48.5965 13.2324 51.4381 12.4668 54.1881V24.3572H75.8268Z" fill="#DFDFD8"/>
<path d="M13.7865 25.6669V45.499C13.8098 45.4308 13.8332 45.3626 13.8566 45.2944C15.4337 40.6882 17.2081 36.1725 19.1764 31.6914C19.3861 31.2138 19.8613 30.9049 20.3865 30.9049H74.5065V25.6669H13.7865ZM21.2533 33.524C19.4502 37.682 17.8169 41.8709 16.3558 46.1382C15.3783 48.9829 14.5007 51.8002 13.7388 54.5369C13.3295 56.0072 11.1465 55.7136 11.1465 54.1883V24.3573C11.1465 23.6341 11.7375 23.0479 12.4665 23.0479H75.8265C76.5555 23.0479 77.1465 23.6341 77.1465 24.3573V32.2145C77.1465 32.9377 76.5555 33.524 75.8265 33.524H21.2533Z" fill="#21262A"/>
<path fill-rule="evenodd" clip-rule="evenodd" d="M52.7998 63.5946C52.7998 55.2025 59.6029 48.3999 67.9945 48.3999C76.3866 48.3999 83.1891 55.2025 83.1891 63.5946C83.1891 71.9861 76.3866 78.7892 67.9945 78.7892C59.6029 78.7892 52.7998 71.9861 52.7998 63.5946Z" fill="#DB334D"/>
<path fill-rule="evenodd" clip-rule="evenodd" d="M64.8801 69.0917C63.1389 67.8258 61.4634 66.4737 59.859 65.0425C59.2704 66.345 58.7405 67.6804 58.27 69.0437C60.8283 71.2299 64.2482 73.7334 66.5969 75.1426C69.6412 67.206 74.3881 62.0292 78.9348 58.4162C78.3503 57.1725 77.5596 56.0466 76.6044 55.0854C71.7604 58.8322 67.7419 63.6087 64.8801 69.0917Z" fill="white"/>
</svg>
