<svg width="19" height="20" viewBox="0 0 19 20" fill="none" xmlns="http://www.w3.org/2000/svg">
<path fill-rule="evenodd" clip-rule="evenodd" d="M9.5 0.5C14.7467 0.5 19 4.75329 19 10C19 15.2467 14.7467 19.5 9.5 19.5C4.25329 19.5 0 15.2467 0 10C0 4.75329 4.25329 0.5 9.5 0.5ZM8.8026 13.1667C8.19598 13.1667 7.68372 13.6303 7.68372 14.2906C7.68372 14.9509 8.19598 15.4286 8.8026 15.4286C9.4227 15.4286 9.94844 14.9509 9.94844 14.2906C9.94844 13.6303 9.4227 13.1667 8.8026 13.1667ZM9.52033 4.57143C7.70084 4.57143 6.27346 5.65928 6.1136 7.65739L6.10768 7.74117C6.0982 7.89527 6.21559 8.02787 6.36989 8.03734L6.38705 8.03787H7.7635C7.9294 8.03787 8.07374 7.92834 8.11994 7.77189L8.12785 7.73999C8.27231 7.02408 8.88174 6.61532 9.50396 6.61532C10.2734 6.61532 10.8301 7.0568 10.8301 7.858C10.8301 8.29948 10.5681 8.77367 9.97873 9.01893L9.38936 9.24785C8.03053 9.80379 7.71947 10.6213 7.85044 11.8804C7.85044 12.061 7.99704 12.2074 8.17787 12.2074H9.2907C9.45505 12.2074 9.59233 12.0865 9.61556 11.9271L9.61856 11.8967C9.61856 11.2263 10.0606 11.0628 10.6827 10.8503C11.9433 10.4088 12.8929 9.34596 12.8929 7.7599C12.8929 5.79776 11.4685 4.57143 9.52033 4.57143Z" fill="#246BFF"/>
</svg>
